<?xml version="1.0" encoding="utf-8"?>
<svg version="1.1" width="2000" height="641" viewBox="0 0 1171.927 647.55" xmlns="http://www.w3.org/2000/svg">
  <g transform="matrix(1,0,0,1,-1.2120591246227832,0.8829585107245066)">
    <svg viewBox="0 0 396 127" data-background-color="#ffffff" preserveAspectRatio="xMidYMid meet" height="641" width="2000" xmlns="http://www.w3.org/2000/svg">
      <g id="tight-bounds" transform="matrix(1,0,0,1,0.23998789771138718,-0.17493873769424795)">
        <svg viewBox="0 0 395.52 127.34987720493596" height="127.34987720493596" width="395.52">
          <g>
            <svg viewBox="0 0 675.9105870760709 217.63028485450496" height="127.34987720493596" width="395.52">
              <g>
                <svg viewBox="0 0 395.52 217.63028485450496" height="217.63028485450496" width="395.52">
                  <g>
                    <svg viewBox="0 0 395.52 217.63028485450496" height="217.63028485450496" width="395.52">
                      <g>
                        <svg viewBox="0 0 395.52 152.3205538727823" height="152.3205538727823" width="395.52">
                          <g transform="matrix(1,0,0,1,0,0)">
                            <svg width="395.52" viewBox="2.1500000953674316 -35 115.54000091552734 44.5" height="152.3205538727823" data-palette-color="#4d7e3e">
                              <path d="M14.5 0.5L14.5 0.5Q8.95 0.5 5.7-2.7 2.45-5.9 2.2-11.8L2.2-11.8Q2.15-12.3 2.15-13.08 2.15-13.85 2.2-14.3L2.2-14.3Q2.4-18.1 3.93-20.83 5.45-23.55 8.15-25.03 10.85-26.5 14.5-26.5L14.5-26.5Q18.55-26.5 21.3-24.83 24.05-23.15 25.45-20.18 26.85-17.2 26.85-13.3L26.85-13.3 26.85-12.25Q26.85-11.75 26.5-11.4 26.15-11.05 25.6-11.05L25.6-11.05 9-11.05Q9-11.05 9-10.9 9-10.75 9-10.65L9-10.65Q9.05-8.9 9.68-7.43 10.3-5.95 11.53-5.05 12.75-4.15 14.45-4.15L14.45-4.15Q15.85-4.15 16.8-4.58 17.75-5 18.35-5.55 18.95-6.1 19.2-6.45L19.2-6.45Q19.65-7.05 19.93-7.18 20.2-7.3 20.75-7.3L20.75-7.3 25.05-7.3Q25.55-7.3 25.88-7 26.2-6.7 26.15-6.25L26.15-6.25Q26.1-5.45 25.33-4.3 24.55-3.15 23.1-2.05 21.65-0.95 19.48-0.23 17.3 0.5 14.5 0.5ZM9-15.4L9-15.25 20.05-15.25 20.05-15.4Q20.05-17.35 19.4-18.82 18.75-20.3 17.5-21.13 16.25-21.95 14.5-21.95L14.5-21.95Q12.75-21.95 11.5-21.13 10.25-20.3 9.63-18.82 9-17.35 9-15.4L9-15.4ZM44.05 0.5L44.05 0.5Q41.35 0.5 38.92-0.18 36.5-0.85 34.6-2.25 32.7-3.65 31.57-5.7 30.45-7.75 30.4-10.55L30.4-10.55Q30.4-11 30.7-11.33 31-11.65 31.45-11.65L31.45-11.65 36.2-11.65Q36.85-11.65 37.17-11.3 37.5-10.95 37.7-10.35L37.7-10.35Q37.95-8.55 38.85-7.43 39.75-6.3 41.12-5.78 42.5-5.25 44.2-5.25L44.2-5.25Q47.35-5.25 49.02-7.3 50.7-9.35 50.7-13L50.7-13 50.7-29.1 33.75-29.1Q33.2-29.1 32.87-29.45 32.55-29.8 32.55-30.3L32.55-30.3 32.55-33.8Q32.55-34.3 32.87-34.65 33.2-35 33.75-35L33.75-35 56.6-35Q57.15-35 57.5-34.65 57.85-34.3 57.85-33.75L57.85-33.75 57.85-12.8Q57.85-8.65 56.12-5.65 54.4-2.65 51.32-1.07 48.25 0.5 44.05 0.5ZM72.3 0.5L72.3 0.5Q69.7 0.5 67.6-0.53 65.5-1.55 64.27-3.28 63.05-5 63.05-7.15L63.05-7.15Q63.05-10.65 65.9-12.73 68.75-14.8 73.35-15.5L73.35-15.5 80.2-16.5 80.2-17.55Q80.2-19.65 79.15-20.8 78.1-21.95 75.55-21.95L75.55-21.95Q73.75-21.95 72.62-21.23 71.5-20.5 70.95-19.3L70.95-19.3Q70.55-18.65 69.8-18.65L69.8-18.65 65.85-18.65Q65.3-18.65 65.02-18.95 64.75-19.25 64.75-19.75L64.75-19.75Q64.8-20.55 65.42-21.7 66.05-22.85 67.32-23.93 68.6-25 70.65-25.75 72.7-26.5 75.6-26.5L75.6-26.5Q78.75-26.5 80.92-25.73 83.1-24.95 84.4-23.65 85.7-22.35 86.3-20.6 86.9-18.85 86.9-16.9L86.9-16.9 86.9-1.2Q86.9-0.7 86.55-0.35 86.2 0 85.7 0L85.7 0 81.65 0Q81.1 0 80.77-0.35 80.45-0.7 80.45-1.2L80.45-1.2 80.45-3.15Q79.8-2.25 78.7-1.4 77.6-0.55 76.02-0.03 74.45 0.5 72.3 0.5ZM74-4.25L74-4.25Q75.75-4.25 77.17-5 78.6-5.75 79.42-7.33 80.25-8.9 80.25-11.3L80.25-11.3 80.25-12.35 75.25-11.55Q72.3-11.1 70.85-10.1 69.4-9.1 69.4-7.65L69.4-7.65Q69.4-6.55 70.07-5.78 70.75-5 71.8-4.63 72.85-4.25 74-4.25ZM101.94 9.5L97.99 9.5Q97.59 9.5 97.29 9.2 96.99 8.9 96.99 8.5L96.99 8.5Q96.99 8.3 97.02 8.13 97.04 7.95 97.19 7.7L97.19 7.7 101.09-1.55 91.49-24.2Q91.29-24.7 91.29-24.9L91.29-24.9Q91.34-25.35 91.64-25.68 91.94-26 92.39-26L92.39-26 96.44-26Q97.04-26 97.34-25.7 97.64-25.4 97.79-25.05L97.79-25.05 104.44-8.7 111.29-25.05Q111.44-25.45 111.74-25.73 112.04-26 112.64-26L112.64-26 116.64-26Q117.04-26 117.37-25.7 117.69-25.4 117.69-25L117.69-25Q117.69-24.7 117.49-24.2L117.49-24.2 103.34 8.55Q103.14 8.95 102.84 9.22 102.54 9.5 101.94 9.5L101.94 9.5Z" opacity="1" transform="matrix(1,0,0,1,0,0)" fill="#ffffff" className="undefined-text-0" data-fill-palette-color="primary" id="text-0"/>
                            </svg>
                          </g>
                        </svg>
                      </g>
                      <g transform="matrix(1,0,0,1,0,188.27978094885327)">
                        <svg viewBox="0 0 395.52 29.350503905651706" height="29.350503905651706" width="395.52">
                          <g transform="matrix(1,0,0,1,0,0)">
                            <svg width="395.52" viewBox="4.050000190734863 -37.650001525878906 652.9000244140625 48.45000076293945" height="29.350503905651706" data-palette-color="#4d7e3e">
                              <path d="M27.6-9.95Q27.6-4.6 23.8-2.3 20 0 14.15 0L14.15 0 4.05 0 4.05-34.5 13.5-34.5Q19-34.5 22.55-32.48 26.1-30.45 26.1-25.75L26.1-25.75Q26.1-22.75 24.28-20.83 22.45-18.9 19.7-18.3L19.7-18.3Q23.1-17.7 25.35-15.78 27.6-13.85 27.6-9.95L27.6-9.95ZM20.2-25.3Q20.2-27.85 18.63-29 17.05-30.15 14-30.15L14-30.15 9.85-30.15 9.85-20.2 14.35-20.2Q17.3-20.2 18.75-21.43 20.2-22.65 20.2-25.3L20.2-25.3ZM21.55-9.95Q21.55-13.2 19.75-14.53 17.95-15.85 14.75-15.85L14.75-15.85 9.85-15.85 9.85-4.5 14.55-4.5Q21.55-4.5 21.55-9.95L21.55-9.95ZM40.05-26.4L40.05-7.95Q40.05-5.65 40.98-4.63 41.9-3.6 43.8-3.6L43.8-3.6Q45.6-3.6 47.28-4.65 48.95-5.7 49.95-7.3L49.95-7.3 49.95-26.4 55.55-26.4 55.55 0 50.7 0 50.35-3.4Q48.95-1.45 46.7-0.4 44.45 0.65 42.05 0.65L42.05 0.65Q38.25 0.65 36.35-1.4 34.45-3.45 34.45-7.25L34.45-7.25 34.45-26.4 40.05-26.4ZM87.55-26.4L78.45 0.1Q76.85 4.9 73.83 7.63 70.8 10.35 65.5 10.8L65.5 10.8 64.8 6.6Q67.4 6.2 69 5.38 70.6 4.55 71.55 3.3 72.5 2.05 73.25 0L73.25 0 71.35 0 62.45-26.4 68.4-26.4 75.05-3.9 81.8-26.4 87.55-26.4ZM133.95-35.15Q136.65-35.15 138.75-34.3 140.85-33.45 142.8-31.35L142.8-31.35 139.65-28.5Q138.35-29.9 137.13-30.53 135.9-31.15 134.25-31.15L134.25-31.15Q132-31.15 130.8-29.9 129.6-28.65 129.6-26.5L129.6-26.5Q129.6-24.3 131.2-22.78 132.8-21.25 135.2-21.25L135.2-21.25 148.75-21.25 148.75-17.25 144.75-17.25 144.75-3.85Q140.8 0.65 133.9 0.65L133.9 0.65Q130.15 0.65 127.55-0.78 124.95-2.2 123.68-4.58 122.4-6.95 122.4-9.8L122.4-9.8Q122.4-13.7 124.38-16.13 126.35-18.55 130.1-19.4L130.1-19.4 130.1-19.55Q127.05-20.3 125.6-22.23 124.15-24.15 124.15-26.85L124.15-26.85Q124.15-29.15 125.38-31.03 126.6-32.9 128.83-34.02 131.05-35.15 133.95-35.15L133.95-35.15ZM139.6-17.25L134.6-17.25Q132.35-17.25 130.85-16.2 129.35-15.15 128.6-13.53 127.85-11.9 127.85-10.1L127.85-10.1Q127.85-7.3 129.45-5.45 131.05-3.6 134.15-3.6L134.15-3.6Q135.9-3.6 137.33-4.17 138.75-4.75 139.6-5.75L139.6-5.75 139.6-17.25ZM207.45-9.75Q207.45-6.65 205.88-4.3 204.3-1.95 201.32-0.65 198.35 0.65 194.25 0.65L194.25 0.65Q186.25 0.65 181.55-3.95L181.55-3.95 184.75-7.5Q188.65-3.9 194.25-3.9L194.25-3.9Q197.35-3.9 199.38-5.35 201.4-6.8 201.4-9.45L201.4-9.45Q201.4-11 200.78-12.05 200.15-13.1 198.65-13.93 197.15-14.75 194.35-15.6L194.35-15.6Q188.6-17.3 185.9-19.65 183.2-22 183.2-25.85L183.2-25.85Q183.2-28.6 184.72-30.73 186.25-32.85 188.95-34.02 191.65-35.2 195.05-35.2L195.05-35.2Q202-35.2 206.6-31.05L206.6-31.05 203.55-27.6Q200-30.65 195.4-30.65L195.4-30.65Q192.6-30.65 190.88-29.5 189.15-28.35 189.15-26.2L189.15-26.2Q189.15-24.85 189.88-23.9 190.6-22.95 192.32-22.18 194.05-21.4 197.2-20.45L197.2-20.45Q202.2-18.95 204.82-16.6 207.45-14.25 207.45-9.75L207.45-9.75ZM219.1-11.4Q219.35-7.55 221.32-5.63 223.3-3.7 226.3-3.7L226.3-3.7Q228.15-3.7 229.82-4.28 231.5-4.85 233.25-6L233.25-6 235.65-2.6Q233.8-1.05 231.3-0.2 228.8 0.65 226.05 0.65L226.05 0.65Q220 0.65 216.65-3.13 213.3-6.9 213.3-13.2L213.3-13.2Q213.3-17.15 214.75-20.33 216.2-23.5 218.95-25.3 221.7-27.1 225.35-27.1L225.35-27.1Q230.6-27.1 233.68-23.58 236.75-20.05 236.75-13.9L236.75-13.9Q236.75-12.4 236.6-11.4L236.6-11.4 219.1-11.4ZM225.4-22.95Q222.7-22.95 221-21 219.3-19.05 219.05-15.2L219.05-15.2 231.3-15.2Q231.2-18.95 229.7-20.95 228.2-22.95 225.4-22.95L225.4-22.95ZM256.05-37L256.05-7.2Q256.05-3.85 260.05-3.85L260.05-3.85Q262.05-3.85 264.25-4.75L264.25-4.75 265.65-0.85Q262.9 0.65 258.85 0.65L258.85 0.65Q254.9 0.65 252.68-1.58 250.45-3.8 250.45-7.7L250.45-7.7 250.45-32.9 242.5-32.9 242.5-37 256.05-37ZM286.05-37L286.05-7.2Q286.05-3.85 290.05-3.85L290.05-3.85Q292.05-3.85 294.25-4.75L294.25-4.75 295.65-0.85Q292.9 0.65 288.85 0.65L288.85 0.65Q284.9 0.65 282.68-1.58 280.45-3.8 280.45-7.7L280.45-7.7 280.45-32.9 272.5-32.9 272.5-37 286.05-37ZM345.9 0.65Q339.2 0.65 335.52-3.93 331.85-8.5 331.85-17.3L331.85-17.3Q331.85-23 333.88-27.05 335.9-31.1 339.32-33.15 342.75-35.2 346.9-35.2L346.9-35.2Q350.25-35.2 352.63-34.23 355-33.25 357.15-31.2L357.15-31.2 353.9-27.85Q352.3-29.3 350.68-29.98 349.05-30.65 347.05-30.65L347.05-30.65Q343.05-30.65 340.48-27.43 337.9-24.2 337.9-17.3L337.9-17.3Q337.9-10.2 339.93-7.03 341.95-3.85 346.15-3.85L346.15-3.85Q349.35-3.85 351.85-5.3L351.85-5.3 351.85-14.8 346-14.8 345.4-19.25 357.5-19.25 357.5-2.5Q354.85-1 352.07-0.18 349.3 0.65 345.9 0.65L345.9 0.65ZM375.05-27.1Q380.75-27.1 383.85-23.38 386.95-19.65 386.95-13.25L386.95-13.25Q386.95-6.85 383.8-3.1 380.65 0.65 375 0.65L375 0.65Q369.3 0.65 366.18-3.03 363.05-6.7 363.05-13.2L363.05-13.2Q363.05-19.5 366.23-23.3 369.4-27.1 375.05-27.1L375.05-27.1ZM375.05-22.75Q372-22.75 370.48-20.4 368.95-18.05 368.95-13.2L368.95-13.2Q368.95-8.3 370.45-5.98 371.95-3.65 375-3.65L375-3.65Q378.05-3.65 379.55-6 381.05-8.35 381.05-13.25L381.05-13.25Q381.05-18.1 379.55-20.43 378.05-22.75 375.05-22.75L375.05-22.75ZM405.05-27.1Q410.75-27.1 413.85-23.38 416.95-19.65 416.95-13.25L416.95-13.25Q416.95-6.85 413.8-3.1 410.65 0.65 405 0.65L405 0.65Q399.3 0.65 396.18-3.03 393.05-6.7 393.05-13.2L393.05-13.2Q393.05-19.5 396.23-23.3 399.4-27.1 405.05-27.1L405.05-27.1ZM405.05-22.75Q402-22.75 400.48-20.4 398.95-18.05 398.95-13.2L398.95-13.2Q398.95-8.3 400.45-5.98 401.95-3.65 405-3.65L405-3.65Q408.05-3.65 409.55-6 411.05-8.35 411.05-13.25L411.05-13.25Q411.05-18.1 409.55-20.43 408.05-22.75 405.05-22.75L405.05-22.75ZM439.95-37.65L445.55-37 445.55 0 440.6 0 440.2-3.25Q438.9-1.35 437-0.35 435.1 0.65 432.8 0.65L432.8 0.65Q427.85 0.65 425.35-3.05 422.85-6.75 422.85-13.2L422.85-13.2Q422.85-17.25 424.13-20.4 425.4-23.55 427.75-25.33 430.1-27.1 433.3-27.1L433.3-27.1Q437.35-27.1 439.95-24.2L439.95-24.2 439.95-37.65ZM434.75-22.8Q431.85-22.8 430.32-20.43 428.8-18.05 428.8-13.2L428.8-13.2Q428.8-3.6 434.3-3.6L434.3-3.6Q437.6-3.6 439.95-7.4L439.95-7.4 439.95-19.85Q437.9-22.8 434.75-22.8L434.75-22.8ZM464.05-3.6Q466.7-3.6 468.23-4.55 469.75-5.5 469.75-7.15L469.75-7.15Q469.75-8.3 469.3-9.03 468.85-9.75 467.5-10.38 466.15-11 463.45-11.7L463.45-11.7Q459.1-12.8 456.93-14.53 454.75-16.25 454.75-19.5L454.75-19.5Q454.75-22.95 457.6-25.03 460.45-27.1 465.3-27.1L465.3-27.1Q471.15-27.1 475.35-24.05L475.35-24.05 472.95-20.5Q469.4-22.85 465.45-22.85L465.45-22.85Q460.45-22.85 460.45-19.95L460.45-19.95Q460.45-18.95 461.02-18.3 461.6-17.65 463-17.07 464.4-16.5 467.15-15.75L467.15-15.75Q471.45-14.55 473.57-12.8 475.7-11.05 475.7-7.55L475.7-7.55Q475.7-3.5 472.35-1.43 469 0.65 464.05 0.65L464.05 0.65Q457.5 0.65 453.2-3.05L453.2-3.05 456.15-6.45Q457.8-5.15 459.82-4.38 461.85-3.6 464.05-3.6L464.05-3.6ZM524.25-35.2Q532.9-35.2 536.23-29.6 539.55-24 539.55-14.45L539.55-14.45Q539.55-7.75 538.92-3.65 538.3 0.45 536.65 2.53 535 4.6 532 4.6L532 4.6Q530.1 4.6 528.77 3.5 527.45 2.4 526.8 0.78 526.15-0.85 526.05-2.45L526.05-2.45 525.85-2.45Q525-0.35 523.3 1 521.6 2.35 518.95 2.35L518.95 2.35Q514.95 2.35 513.08-0.75 511.2-3.85 511.2-9.1L511.2-9.1Q511.2-15.5 513.8-18.85 516.4-22.2 521.35-22.2L521.35-22.2Q525.15-22.2 528.9-20.2L528.9-20.2 528.9-5.35Q528.9-2 529.65-0.68 530.4 0.65 531.85 0.65L531.85 0.65Q533.1 0.65 533.67-1.05 534.25-2.75 534.4-5.68 534.55-8.6 534.55-14.25L534.55-14.25Q534.55-19.7 533.73-23.33 532.9-26.95 530.6-29 528.3-31.05 524.15-31.05L524.15-31.05Q521.35-31.05 518.6-30.03 515.85-29 512.95-26.45L512.95-26.45 510.25-29.6Q516.65-35.2 524.25-35.2L524.25-35.2ZM521.4-18.4Q518.6-18.4 517.5-16.25 516.4-14.1 516.4-9.1L516.4-9.1Q516.4-5.3 517.17-3.4 517.95-1.5 519.8-1.5L519.8-1.5Q521.75-1.5 522.65-2.68 523.55-3.85 524.1-5.55L524.1-5.55 524.1-17.75Q522.8-18.4 521.4-18.4L521.4-18.4ZM595.4-34.5L595.4-11.85Q595.4-6.4 592.27-2.88 589.15 0.65 582.8 0.65L582.8 0.65Q577.35 0.65 573-2.55L573-2.55 575.35-6.2Q577.3-4.95 579.05-4.42 580.8-3.9 582.6-3.9L582.6-3.9Q585.85-3.9 587.73-6 589.6-8.1 589.6-11.95L589.6-11.95 589.6-30.05 579.25-30.05 579.25-34.5 595.4-34.5ZM620.65 0L620.65-15.7 609.35-15.7 609.35 0 603.55 0 603.55-34.5 609.35-34.5 609.35-20.45 620.65-20.45 620.65-34.5 626.45-34.5 626.45 0 620.65 0ZM656.95-34.5L656.95-11.3Q656.95-7.8 655.52-5.1 654.1-2.4 651.4-0.88 648.7 0.65 644.95 0.65L644.95 0.65Q639.3 0.65 636.17-2.6 633.05-5.85 633.05-11.3L633.05-11.3 633.05-34.5 638.85-34.5 638.85-12.4Q638.85-8.1 640.33-6.03 641.8-3.95 644.95-3.95L644.95-3.95Q648.15-3.95 649.63-6.03 651.1-8.1 651.1-12.4L651.1-12.4 651.1-34.5 656.95-34.5Z" opacity="1" transform="matrix(1,0,0,1,0,0)" fill="#ffffff" className="undefined-text-1" data-fill-palette-color="secondary" id="text-1"/>
                            </svg>
                          </g>
                        </svg>
                      </g>
                    </svg>
                  </g>
                </svg>
              </g>
              <g transform="matrix(1,0,0,1,431.47922707607097,15.153103831773393)">
                <svg viewBox="0 0 244.43135999999998 187.32407719095818" height="187.32407719095818" width="244.43135999999998">
                  <g>
                    <svg xmlns="http://www.w3.org/2000/svg" version="1.1" x="0" y="0" viewBox="5.020999908447266 17.23200035095215 89.99998474121094 68.9729995727539" enable-background="new 0 0 100 100" height="187.32407719095818" width="244.43135999999998" className="icon-icon-0" data-fill-palette-color="accent" id="icon-0">
                      <g fill="#4d7e3e" data-fill-palette-color="accent"/>
                    </svg>
                  </g>
                </svg>
              </g>
            </svg>
          </g>
        </svg>
        <rect width="395.52" height="127.34987720493596" fill="none" stroke="none" visibility="hidden"/>
      </g>
    </svg>
  </g>
</svg>