<?xml version="1.0" encoding="utf-8"?>
<svg version="1.1" width="2000" height="641" viewBox="1261.883 0 738.117 615.383" xmlns="http://www.w3.org/2000/svg">
  <g transform="matrix(1,0,0,1,-1.2120591246227832,0.8829585107245066)">
    <svg viewBox="0 0 396 127" data-background-color="#ffffff" preserveAspectRatio="xMidYMid meet" height="641" width="2000" xmlns="http://www.w3.org/2000/svg">
      <g id="tight-bounds" transform="matrix(1,0,0,1,0.23998789771138718,-0.17493873769424795)">
        <svg viewBox="0 0 395.52 127.34987720493596" height="127.34987720493596" width="395.52">
          <g>
            <svg viewBox="0 0 675.9105870760709 217.63028485450496" height="127.34987720493596" width="395.52" transform="matrix(1, 0, 0, 1, -88.07707396526436, 1.622876671997492)">
              <g>
                <svg viewBox="0 0 395.52 217.63028485450496" height="217.63028485450496" width="395.52">
                  <g>
                    <svg viewBox="0 0 395.52 217.63028485450496" height="217.63028485450496" width="395.52">
                      <g>
                        <svg viewBox="0 0 395.52 152.3205538727823" height="152.3205538727823" width="395.52">
                          <g transform="matrix(1,0,0,1,0,0)">
                            <svg width="395.52" viewBox="2.1500000953674316 -35 115.54000091552734 44.5" height="152.3205538727823" data-palette-color="#4d7e3e"/>
                          </g>
                        </svg>
                      </g>
                      <g transform="matrix(1,0,0,1,0,188.27978094885327)">
                        <svg viewBox="0 0 395.52 29.350503905651706" height="29.350503905651706" width="395.52">
                          <g transform="matrix(1,0,0,1,0,0)">
                            <svg width="395.52" viewBox="4.050000190734863 -37.650001525878906 652.9000244140625 48.45000076293945" height="29.350503905651706" data-palette-color="#4d7e3e"/>
                          </g>
                        </svg>
                      </g>
                    </svg>
                  </g>
                </svg>
              </g>
              <g transform="matrix(1,0,0,1,431.47922707607097,15.153103831773393)">
                <svg viewBox="0 0 244.43135999999998 187.32407719095818" height="187.32407719095818" width="244.43135999999998">
                  <g>
                    <svg xmlns="http://www.w3.org/2000/svg" version="1.1" x="0" y="0" viewBox="5.020999908447266 17.23200035095215 89.99998474121094 68.9729995727539" enable-background="new 0 0 100 100" height="187.32407719095818" width="244.43135999999998" class="icon-icon-0" data-fill-palette-color="accent" id="icon-0">
                      <g fill="#4d7e3e" data-fill-palette-color="accent">
                        <path d="M80.609 35.165l12.494 1.794 0.291-0.903-26.207-13.73-16.664-4.944-0.552-0.15-0.454 0.15-16.75 4.979L6.645 36.056l0.29 0.903L19.397 35.2 5.021 50.921l15.154 8.668v9.396 0.149l29.343 16.784 0.503 0.287 0.502-0.287 29.101-16.646 0.242-0.139v-0.15-9.395l15.155-8.668L80.609 35.165zM78.902 67.324v0.555 0.555 0.144L50.523 84.811l-0.043 0.023V53.246l0.043 0.046 14.262 14.922 6.867-3.928 0.484-0.277 0.484-0.276 6.281-3.592V67.324L78.902 67.324zM46.206 19.368L28.641 29.415l-7.98 4.564-0.164 0.094 0 0-0.079 0.011L9.551 35.618l23.576-12.37L46.206 19.368zM53.827 19.363l13 3.85 23.659 12.405-10.863-1.533-0.08-0.011-0.164-0.094-5.898-3.375L53.827 19.363zM49.518 51.091l-0.071 0.041L21.61 34.545l16.345-9.349 11.563-6.614V51.091zM20.655 35.25l0.008-0.008 0.083-0.091 0.391 0.233 5.427 3.234 21.924 13.063 0.475 0.281 0.315 0.188-0.008 0.009-0.384 0.401L35.08 67.006l-5.724-3.273-0.485-0.276-0.485-0.276-7.25-4.147-0.481-0.274-0.481-0.275L6.542 50.684l13.633-14.908L20.655 35.25zM78.902 59.03l-7.25 4.146-0.483 0.277-0.485 0.277-5.724 3.273L51.156 52.562l-0.385-0.403-0.008-0.009 0.313-0.188 0.475-0.281 21.933-13.07 5.418-3.228 0.392-0.233 0.084 0.091 0.007 0.007 0.48 0.526 13.633 14.907L79.865 58.48l-0.48 0.274L78.902 59.03z" fill="#ffffff" data-fill-palette-color="accent"/>
                      </g>
                    </svg>
                  </g>
                </svg>
              </g>
            </svg>
          </g>
        </svg>
        <rect width="395.52" height="127.34987720493596" fill="none" stroke="none" visibility="hidden"/>
      </g>
    </svg>
  </g>
</svg>